<svg xmlns="http://www.w3.org/2000/svg" viewBox="0 0 128 128" role="img" aria-labelledby="title desc" shape-rendering="crispEdges">
  <title id="title">Resume Extraction Agent</title>
  <desc id="desc">Inbox buddy with a scanned resume page.</desc>
  <rect x="24" y="46" width="66" height="48" fill="#2563eb"/>
  <rect x="32" y="54" width="50" height="10" fill="#dbeafe"/>
  <rect x="32" y="64" width="25" height="18" fill="#bfdbfe"/>
  <rect x="57" y="64" width="25" height="18" fill="#93c5fd"/>
  <rect x="38" y="38" width="10" height="10" fill="#0f172a"/>
  <rect x="64" y="38" width="10" height="10" fill="#0f172a"/>
  <rect x="40" y="40" width="5" height="5" fill="#ffffff"/>
  <rect x="66" y="40" width="5" height="5" fill="#ffffff"/>
  <rect x="48" y="78" width="18" height="6" fill="#0f172a"/>
  <rect x="18" y="62" width="6" height="20" fill="#2563eb"/>
  <rect x="40" y="96" width="12" height="8" fill="#1e40af"/>
  <rect x="62" y="96" width="12" height="8" fill="#1e40af"/>
  <rect x="84" y="30" width="32" height="48" fill="#ffffff"/>
  <rect x="108" y="30" width="8" height="8" fill="#dcfce7"/>
  <rect x="90" y="42" width="16" height="3" fill="#16a34a"/>
  <rect x="90" y="52" width="18" height="3" fill="#16a34a"/>
  <rect x="88" y="60" width="24" height="4" fill="#60a5fa"/>
</svg>
